#!OML:ASF I:\Random Stuff\random\construction\7_22_03\Session 2\subj1.ASF
:FULLY-SPECIFIED
:DEGREES
315
root -2.56777 17.822 0.410059 2.88512 78.2615 -6.63924
lowerback 0.832662 -1.43405 0.944294
upperback -3.30222 -1.82201 1.07853
thorax -3.85763 -0.90568 0.656738
lowerneck -22.9765 7.06793 7.74165
upperneck 33.8665 9.30927 -3.27735
head 16.6227 4.57337 -0.739003
rclavicle 3.70982e-014 -1.26228e-014
rhumerus -25.5017 43.9534 -94.5572
rradius 94.6254
rwrist -36.7569
rhand -28.1962 11.3449
rfingers 7.12502
rthumb -1.57536 -18.629
lclavicle 3.70982e-014 -1.26228e-014
lhumerus 1.65449 -11.5936 81.2451
lradius 59.4866
lwrist 56.1628
lhand -19.1101 66.8045
lfingers 7.12502
lthumb 7.19892 -96.6621
rfemur -12.2971 35.7392 13.5684
rtibia 6.44802
rfoot 0.964905 -34.1711
rtoes -15.1434
lfemur -10.6354 -20.8619 -14.2802
ltibia 16.1019
lfoot -17.447 32.2122
ltoes -16.93
316
root -2.57331 17.8246 0.408214 2.97623 77.6677 -6.71652
lowerback 0.97715 -1.52687 0.944507
upperback -3.22692 -1.94895 1.02976
thorax -3.8626 -0.970758 0.614695
lowerneck -22.8214 7.36896 7.93307
upperneck 33.8223 9.65381 -3.17983
head 16.5968 4.7529 -0.657673
rclavicle -3.6623e-014 5.26779e-015
rhumerus -25.6313 44.7549 -95.1326
rradius 94.5225
rwrist -36.6289
rhand -28.3268 11.5922
rfingers 7.12502
rthumb -1.70155 -18.3807
lclavicle -3.6623e-014 5.26779e-015
lhumerus 3.67795 -10.5075 80.7334
lradius 58.4019
lwrist 56.5643
lhand -17.6405 65.3187
lfingers 7.12502
lthumb 8.61731 -95.1229
rfemur -12.4196 36.3005 13.334
rtibia 5.81852
rfoot 1.44907 -34.1074
rtoes -15.0053
lfemur -10.8168 -19.5097 -14.2504
ltibia 16.1941
lfoot -17.1021 31.5531
ltoes -17.0277
317
root -2.57876 17.8277 0.406968 3.14186 77.0186 -6.73364
lowerback 1.17898 -1.54562 1.03122
upperback -3.19088 -1.97491 0.906952
thorax -3.9468 -0.989289 0.446613
lowerneck -22.7394 7.56392 8.07587
upperneck 33.8504 9.83113 -3.0118
head 16.6033 4.8674 -0.571386
rclavicle 3.54512e-014 3.86388e-015
rhumerus -25.7925 45.3165 -95.7463
rradius 94.4538
rwrist -36.5479
rhand -28.3992 11.7363
rfingers 7.12502
rthumb -1.77145 -18.2361
lclavicle 3.54512e-014 3.86388e-015
lhumerus 5.53653 -9.62253 80.3081
lradius 57.2195
lwrist 56.781
lhand -17.6261 66.1836
lfingers 7.12502
lthumb 8.63121 -95.9871
rfemur -12.7275 36.9131 13.0625
rtibia 5.46536
rfoot 1.87157 -34.105
rtoes -15.2925
lfemur -10.9699 -18.1503 -14.2316
ltibia 16.2546
lfoot -16.9997 30.8174
ltoes -16.6024
318
root -2.58356 17.8312 0.402062 3.81065 76.3213 -6.24406
lowerback 1.29751 -1.54184 0.96363
upperback -3.09481 -1.97839 0.785221
thorax -3.9161 -0.991983 0.361036
lowerneck -22.7242 7.71769 8.17648
upperneck 33.8056 9.96598 -2.89724
head 16.5863 4.94817 -0.509978
rclavicle 1.08369e-014 -2.26118e-015
rhumerus -25.7301 45.8304 -96.1642
rradius 94.3824
rwrist -36.7199
rhand -28.3104 11.8815
rfingers 7.12502
rthumb -1.68573 -18.0916
lclavicle 1.08369e-014 -2.26118e-015
lhumerus 7.30204 -8.75773 80.0014
lradius 55.9544
lwrist 56.8578
lhand -17.4454 66.5438
lfingers 7.12502
lthumb 8.80558 -96.3401
rfemur -13.1814 37.5594 12.6294
rtibia 5.3485
rfoot 2.09625 -34.1513
rtoes -15.5381
lfemur -11.1052 -16.391 -14.3882
ltibia 16.3156
lfoot -16.8295 29.769
ltoes -16.6253
319
root -2.58977 17.8329 0.395721 4.43153 75.6402 -5.79667
lowerback 1.46475 -1.56084 0.809187
upperback -3.02436 -2.011 0.745801
thorax -3.93369 -1.00495 0.412068
lowerneck -22.5897 7.88782 8.27039
upperneck 33.6683 10.187 -2.92106
head 16.5111 5.04609 -0.494577
rclavicle 9.39258e-015 -1.04362e-015
rhumerus -25.7726 46.3438 -96.5627
rradius 94.3347
rwrist -36.7776
rhand -28.1137 12.0476
rfingers 7.12502
rthumb -1.4957 -17.9269
lclavicle 9.39258e-015 -1.04362e-015
lhumerus 8.92992 -7.86856 79.7941
lradius 54.475
lwrist 56.7045
lhand -17.7817 67.2717
lfingers 7.12502
lthumb 8.48101 -97.0814
rfemur -13.6716 38.1837 12.1772
rtibia 5.31541
rfoot 2.13095 -34.1982
rtoes -15.3013
lfemur -11.2495 -14.1704 -14.5945
ltibia 16.4219
lfoot -16.4653 28.3442
ltoes -17.1907
320
root -2.59334 17.8317 0.392635 4.65736 74.9729 -5.74121
lowerback 1.68022 -1.57851 0.731083
upperback -2.99558 -2.03679 0.736579
thorax -4.02345 -1.01602 0.453666
lowerneck -22.3713 8.08276 8.40231
upperneck 33.5328 10.4622 -2.99505
head 16.4291 5.16694 -0.498146
rclavicle -4.30742e-014 6.85807e-015
rhumerus -26.0053 46.7921 -97.0554
rradius 94.3419
rwrist -36.6465
rhand -27.9173 12.097
rfingers 7.12502
rthumb -1.30609 -17.8787
lclavicle -4.30742e-014 6.85807e-015
lhumerus 10.4603 -7.04751 79.6302
lradius 52.7829
lwrist 56.2234
lhand -16.3989 65.3406
lfingers 7.12502
lthumb 9.81531 -95.0919
rfemur -14.1158 38.8068 11.8501
rtibia 5.25041
rfoot 2.31455 -34.2421
rtoes -15.3375
lfemur -11.3846 -12.2253 -14.6913
ltibia 16.6057
lfoot -16.272 27.1068
ltoes -17.1336
321
root -2.59339 17.8318 0.390881 4.85784 74.3313 -5.69862
lowerback 1.87851 -1.59549 0.621212
upperback -2.96776 -2.063 0.736369
thorax -4.10297 -1.02606 0.521927
lowerneck -22.2484 8.25179 8.46957
upperneck 33.4976 10.6813 -2.9565
head 16.4018 5.27117 -0.44987
rclavicle 3.76821e-014 -5.36719e-015
rhumerus -26.1757 47.1982 -97.4766
rradius 94.3504
rwrist -36.5675
rhand -27.6593 11.8755
rfingers 7.12502
rthumb -1.05684 -18.1017
lclavicle 3.76821e-014 -5.36719e-015
lhumerus 11.4076 -6.59558 79.3153
lradius 51.5034
lwrist 55.659
lhand -16.2557 65.7143
lfingers 7.12502
lthumb 9.95346 -95.459
rfemur -14.4623 39.4087 11.55
rtibia 5.06734
rfoot 2.63963 -34.2767
rtoes -15.6517
lfemur -11.5608 -10.6614 -14.7567
ltibia 16.8514
lfoot -16.1956 26.184
ltoes -16.9813
322
root -2.59474 17.8335 0.389118 4.8687 73.6691 -5.83245
lowerback 2.1351 -1.62321 0.665346
upperback -2.9606 -2.0989 0.680255
thorax -4.24474 -1.04649 0.449659
lowerneck -22.1661 8.3963 8.75168
upperneck 33.5027 10.8824 -3.185
head 16.4428 5.35525 -0.551977
rclavicle -2.89604e-014 1.88845e-015
rhumerus -26.2787 47.6066 -97.9953
rradius 94.2305
rwrist -36.5001
rhand -27.5881 11.8535
rfingers 7.12502
rthumb -0.988131 -18.1239
lclavicle -2.89604e-014 1.88845e-015
lhumerus 12.3024 -6.27919 78.8671
lradius 50.1071
lwrist 54.8401
lhand -15.9767 65.6996
lfingers 7.12502
lthumb 10.2226 -95.4312
rfemur -14.746 40.0347 11.2928
rtibia 4.75912
rfoot 2.97266 -34.2737
rtoes -15.8276
lfemur -11.7624 -9.10657 -14.7631
ltibia 17.112
lfoot -16.0595 25.3434
ltoes -17.3069
323
root -2.5961 17.836 0.386704 4.97687 72.933 -5.93126
lowerback 2.20819 -1.60667 0.544581
upperback -2.88357 -2.08018 0.753367
thorax -4.19904 -1.03263 0.59204
lowerneck -22.1131 8.49775 9.06068
upperneck 33.4089 11.1582 -3.83164
head 16.4867 5.41172 -0.822146
rclavicle -1.04474e-013 -1.68967e-015
rhumerus -26.1906 48.1778 -98.1805
rradius 94.0055
rwrist -36.2314
rhand -27.8659 12.2075
rfingers 7.12502
rthumb -1.25639 -17.7686
lclavicle -1.04474e-013 -1.68967e-015
lhumerus 13.1701 -6.0684 78.5524
lradius 48.8277
lwrist 54.2303
lhand -15.5891 65.4945
lfingers 7.12502
lthumb 10.5966 -95.2073
rfemur -15.0739 40.7194 10.9402
rtibia 4.28739
rfoot 3.39805 -34.2551
rtoes -15.8453
lfemur -12.015 -7.60766 -14.7748
ltibia 17.4061
lfoot -15.9426 24.6451
ltoes -17.7013
324
root -2.5992 17.8415 0.383074 5.58255 72.1938 -5.65078
lowerback 2.22572 -1.57046 0.401232
upperback -2.87891 -2.03915 0.730498
thorax -4.20002 -1.00835 0.64666
lowerneck -22.0783 8.58863 9.22612
upperneck 33.3477 11.3406 -4.13232
head 16.5042 5.46179 -0.939963
rclavicle -1.12313e-014 1.59028e-015
rhumerus -26.167 48.6729 -98.4712
rradius 93.7426
rwrist -35.7999
rhand -28.2592 12.4556
rfingers 7.12502
rthumb -1.63628 -17.5179
lclavicle -1.12313e-014 1.59028e-015
lhumerus 13.7546 -6.2053 78.0522
lradius 47.8651
lwrist 54.4044
lhand -15.2629 64.9307
lfingers 7.12502
lthumb 10.9111 -94.6272
rfemur -15.5046 41.3691 10.3326
rtibia 3.61542
rfoot 3.9955 -34.2064
rtoes -15.9079
lfemur -12.4215 -5.94805 -14.9079
ltibia 17.7071
lfoot -15.737 23.8121
ltoes -18.5171
325
root -2.5923 17.8413 0.377611 5.69135 71.3781 -5.65891
lowerback 2.40674 -1.55456 0.412379
upperback -2.8437 -2.01934 0.679308
thorax -4.26851 -0.999973 0.591533
lowerneck -21.8958 8.77179 9.44707
upperneck 33.2291 11.5866 -4.27226
head 16.4563 5.57203 -0.989234
rclavicle 8.77137e-015 -1.09332e-014
rhumerus -26.1477 49.1162 -98.865
rradius 93.5501
rwrist -35.8933
rhand -28.0724 12.196
rfingers 7.12502
rthumb -1.45581 -17.7787
lclavicle 8.77137e-015 -1.09332e-014
lhumerus 14.0348 -6.32988 77.4301
lradius 47.1702
lwrist 55.1536
lhand -15.1962 64.5701
lfingers 7.12502
lthumb 10.9755 -94.2632
rfemur -15.6666 42.1396 9.98639
rtibia 3.02415
rfoot 4.57312 -34.1371
rtoes -16.3702
lfemur -12.5178 -4.48311 -14.9938
ltibia 17.9562
lfoot -15.723 23.1814
ltoes -19.1515
326
root -2.58606 17.8426 0.368465 5.60772 70.758 -5.87062
lowerback 2.59661 -1.61324 0.505079
upperback -2.81151 -2.09258 0.69254
thorax -4.34536 -1.03923 0.563307
lowerneck -21.6337 8.96283 9.6906
upperneck 32.9937 11.8891 -4.56142
head 16.3541 5.68951 -1.09779
rclavicle -3.12092e-014 8.15017e-015
rhumerus -26.0797 49.478 -99.1461
rradius 93.5247
rwrist -37.0096
rhand -27.0681 11.8643
rfingers 7.12502
rthumb -0.485907 -18.1149
lclavicle -3.12092e-014 8.15017e-015
lhumerus 14.2992 -6.09155 77.0967
lradius 46.5412
lwrist 55.9769
lhand -15.1837 64.3027
lfingers 7.12502
lthumb 10.9876 -93.9951
rfemur -15.8038 42.726 9.7075
rtibia 2.45004
rfoot 5.09506 -34.0722
rtoes -16.8444
lfemur -12.6355 -3.68771 -14.9893
ltibia 18.1567
lfoot -15.8005 22.9988
ltoes -19.4026
